<?xml version="1.0" encoding="UTF-8"?>
<!DOCTYPE svg PUBLIC "-//W3C//DTD SVG 1.1//EN" "http://www.w3.org/Graphics/SVG/1.1/DTD/svg11.dtd">
<svg xmlns="http://www.w3.org/2000/svg" version="1.1" width="138px" height="145px" style="shape-rendering:geometricPrecision; text-rendering:geometricPrecision; image-rendering:optimizeQuality; fill-rule:evenodd; clip-rule:evenodd" xmlns:xlink="http://www.w3.org/1999/xlink">
<g><path style="opacity:1" fill="#c4daec" d="M 113.5,27.5 C 109.936,25.8308 106.936,26.6642 104.5,30C 105.252,30.6708 105.586,31.5041 105.5,32.5C 102.464,31.6376 100.131,29.8042 98.5,27C 94.5326,25.1731 90.5326,23.6731 86.5,22.5C 85.0858,20.9458 83.4192,19.6125 81.5,18.5C 80.6143,17.675 80.281,16.675 80.5,15.5C 78.0504,15.702 75.717,15.3686 73.5,14.5C 73.5,13.1667 72.8333,12.5 71.5,12.5C 69.3792,12.3253 67.3792,12.6586 65.5,13.5C 65.1667,13.5 64.8333,13.5 64.5,13.5C 61.752,15.5725 58.752,17.2391 55.5,18.5C 54.5748,19.3569 53.9081,20.3569 53.5,21.5C 45.9144,24.6261 38.5811,28.2928 31.5,32.5C 31.7529,30.1727 31.0863,28.1727 29.5,26.5C 27.5504,27.3721 25.5504,28.0388 23.5,28.5C 26.681,26.4083 29.681,24.075 32.5,21.5C 33.8734,21.6567 35.2068,21.49 36.5,21C 43.6577,16.3334 50.6577,11.5001 57.5,6.5C 60.7568,5.53829 63.7568,4.03829 66.5,2C 68.1667,1.33333 69.8333,1.33333 71.5,2C 77.8352,6.5031 84.5018,10.5031 91.5,14C 92.3366,15.0113 92.67,16.1779 92.5,17.5C 94.5273,17.3379 96.5273,17.5045 98.5,18C 103.564,21.1913 108.564,24.3579 113.5,27.5 Z"/></g>
<g><path style="opacity:0.169" fill="#4377ac" d="M 57.5,6.5 C 50.6577,11.5001 43.6577,16.3334 36.5,21C 35.2068,21.49 33.8734,21.6567 32.5,21.5C 40.5663,16.1101 48.8996,11.1101 57.5,6.5 Z"/></g>
<g><path style="opacity:0.261" fill="#31716e" d="M 64.5,13.5 C 64.8333,13.5 65.1667,13.5 65.5,13.5C 65.6662,19.5092 65.4995,25.5092 65,31.5C 63.7365,33.607 61.9032,34.607 59.5,34.5C 61.1032,33.4036 62.6032,32.0703 64,30.5C 64.4992,25.8452 64.6658,21.1785 64.5,16.5C 64.5,15.5 64.5,14.5 64.5,13.5 Z"/></g>
<g><path style="opacity:0.125" fill="#4075a9" d="M 64.5,13.5 C 64.5,14.5 64.5,15.5 64.5,16.5C 60.6837,17.9094 57.0171,19.576 53.5,21.5C 53.9081,20.3569 54.5748,19.3569 55.5,18.5C 58.752,17.2391 61.752,15.5725 64.5,13.5 Z"/></g>
<g><path style="opacity:0.059" fill="#4475ab" d="M 73.5,14.5 C 75.717,15.3686 78.0504,15.702 80.5,15.5C 80.281,16.675 80.6143,17.675 81.5,18.5C 83.4192,19.6125 85.0858,20.9458 86.5,22.5C 82.2756,20.2205 77.9422,18.2205 73.5,16.5C 73.5,15.8333 73.5,15.1667 73.5,14.5 Z"/></g>
<g><path style="opacity:0.133" fill="#497caf" d="M 116.5,113.5 C 118.647,111.263 120.98,109.263 123.5,107.5C 124.721,106.972 125.887,106.305 127,105.5C 127.667,82.1667 127.667,58.8333 127,35.5C 122.352,33.0052 117.852,30.3385 113.5,27.5C 108.564,24.3579 103.564,21.1913 98.5,18C 96.5273,17.5045 94.5273,17.3379 92.5,17.5C 92.67,16.1779 92.3366,15.0113 91.5,14C 84.5018,10.5031 77.8352,6.5031 71.5,2C 69.8333,1.33333 68.1667,1.33333 66.5,2C 63.7568,4.03829 60.7568,5.53829 57.5,6.5C 61.4316,1.87194 66.4316,0.0386028 72.5,1C 91.2491,11.7896 109.749,22.9563 128,34.5C 128.667,58.5 128.667,82.5 128,106.5C 124.527,109.484 120.694,111.817 116.5,113.5 Z"/></g>
<g><path style="opacity:0.263" fill="#366fa5" d="M 32.5,21.5 C 29.681,24.075 26.681,26.4083 23.5,28.5C 19.4945,29.4977 16.1612,31.4977 13.5,34.5C 11.9382,34.7329 10.6049,35.3995 9.5,36.5C 9.41423,35.5041 9.74756,34.6708 10.5,34C 17.7255,29.5564 25.0589,25.3898 32.5,21.5 Z"/></g>
<g><path style="opacity:1" fill="#cadef0" d="M 31.5,32.5 C 29.7705,33.6407 28.7705,35.3074 28.5,37.5C 28.381,40.3769 29.7144,42.0436 32.5,42.5C 33.0781,45.3701 34.7448,47.0367 37.5,47.5C 35.8325,49.4786 35.1658,51.812 35.5,54.5C 35.1667,54.5 34.8333,54.5 34.5,54.5C 32.5329,52.5113 30.1996,51.0113 27.5,50C 24.462,49.115 21.7954,49.615 19.5,51.5C 18.1667,65.8333 18.1667,80.1667 19.5,94.5C 18.3139,96.7922 18.3139,99.1256 19.5,101.5C 17.9833,98.4653 15.8167,95.7987 13,93.5C 12.5001,74.5029 12.3334,55.5029 12.5,36.5C 12.8333,35.8333 13.1667,35.1667 13.5,34.5C 16.1612,31.4977 19.4945,29.4977 23.5,28.5C 25.5504,28.0388 27.5504,27.3721 29.5,26.5C 31.0863,28.1727 31.7529,30.1727 31.5,32.5 Z"/></g>
<g><path style="opacity:0.957" fill="#5986b5" d="M 86.5,22.5 C 90.5326,23.6731 94.5326,25.1731 98.5,27C 100.131,29.8042 102.464,31.6376 105.5,32.5C 105.833,33.1667 106.167,33.8333 106.5,34.5C 99.4938,30.9998 92.8272,26.9998 86.5,22.5 Z"/></g>
<g><path style="opacity:1" fill="#c6dbed" d="M 113.5,27.5 C 117.852,30.3385 122.352,33.0052 127,35.5C 127.667,58.8333 127.667,82.1667 127,105.5C 125.887,106.305 124.721,106.972 123.5,107.5C 121.092,108.061 118.759,108.561 116.5,109C 113.997,107.451 113.997,105.784 116.5,104C 115.906,103.536 115.239,103.369 114.5,103.5C 114.5,103.167 114.5,102.833 114.5,102.5C 115.822,102.67 116.989,102.337 118,101.5C 118.703,99.0709 118.537,96.7375 117.5,94.5C 118.831,87.6992 119.497,80.5325 119.5,73C 119.333,65.8333 119.167,58.6667 119,51.5C 117.322,49.4468 115.489,49.1134 113.5,50.5C 109.316,50.5919 105.983,52.2586 103.5,55.5C 103.167,55.5 102.833,55.5 102.5,55.5C 102.66,53.8008 102.494,52.1341 102,50.5C 100.333,49.2668 98.8333,47.9335 97.5,46.5C 102.179,45.6747 106.346,43.6747 110,40.5C 111.392,36.7796 110.225,34.7796 106.5,34.5C 106.167,33.8333 105.833,33.1667 105.5,32.5C 105.586,31.5041 105.252,30.6708 104.5,30C 106.936,26.6642 109.936,25.8308 113.5,27.5 Z"/></g>
<g><path style="opacity:0.145" fill="#4075aa" d="M 53.5,21.5 C 46.2351,26.8086 38.5685,31.642 30.5,36C 29.9781,36.5613 29.6448,37.228 29.5,38C 30.3146,39.6434 31.3146,41.1434 32.5,42.5C 29.7144,42.0436 28.381,40.3769 28.5,37.5C 28.7705,35.3074 29.7705,33.6407 31.5,32.5C 38.5811,28.2928 45.9144,24.6261 53.5,21.5 Z"/></g>
<g><path style="opacity:0.18" fill="#3d7769" d="M 71.5,12.5 C 72.8333,12.5 73.5,13.1667 73.5,14.5C 73.5,15.1667 73.5,15.8333 73.5,16.5C 73.3342,21.1785 73.5008,25.8452 74,30.5C 78.3221,33.399 82.4887,36.399 86.5,39.5C 81.1704,38.3583 76.6704,35.6917 73,31.5C 72.7932,25.0865 72.2932,18.7531 71.5,12.5 Z"/></g>
<g><path style="opacity:0.278" fill="#2a6a71" d="M 59.5,34.5 C 58.1979,36.8218 56.1979,38.1551 53.5,38.5C 55.1475,36.6736 57.1475,35.3403 59.5,34.5 Z"/></g>
<g><path style="opacity:0.6" fill="#5d8cb9" d="M 13.5,34.5 C 13.1667,35.1667 12.8333,35.8333 12.5,36.5C 11.8826,36.6107 11.3826,36.944 11,37.5C 10.3333,60.1667 10.3333,82.8333 11,105.5C 12.3756,106.705 13.5423,108.038 14.5,109.5C 11.909,108.746 10.0757,107.079 9,104.5C 8.17036,81.6629 8.33702,58.9963 9.5,36.5C 10.6049,35.3995 11.9382,34.7329 13.5,34.5 Z"/></g>
<g><path style="opacity:0.357" fill="#3e7666" d="M 53.5,38.5 C 50.2679,42.1302 46.2679,44.7969 41.5,46.5C 41.5,46.1667 41.5,45.8333 41.5,45.5C 45.1638,42.6654 49.1638,40.332 53.5,38.5 Z"/></g>
<g><path style="opacity:0.169" fill="#2f6aa2" d="M 106.5,34.5 C 110.225,34.7796 111.392,36.7796 110,40.5C 106.346,43.6747 102.179,45.6747 97.5,46.5C 97.5,46.1667 97.5,45.8333 97.5,45.5C 102.276,44.2768 106.276,41.7768 109.5,38C 108.29,36.9609 107.29,35.7942 106.5,34.5 Z"/></g>
<g><path style="opacity:0.388" fill="#3d7766" d="M 86.5,39.5 C 90.2996,41.2336 93.9663,43.2336 97.5,45.5C 97.5,45.8333 97.5,46.1667 97.5,46.5C 92.9827,45.2817 89.3161,42.9484 86.5,39.5 Z"/></g>
<g><path style="opacity:1" fill="#a6d61b" d="M 71.5,12.5 C 72.2932,18.7531 72.7932,25.0865 73,31.5C 76.6704,35.6917 81.1704,38.3583 86.5,39.5C 89.3161,42.9484 92.9827,45.2817 97.5,46.5C 98.8333,47.9335 100.333,49.2668 102,50.5C 102.494,52.1341 102.66,53.8008 102.5,55.5C 102.334,65.5056 102.5,75.5056 103,85.5C 105.985,88.4089 109.485,90.4089 113.5,91.5C 114.436,92.9744 115.77,93.9744 117.5,94.5C 118.537,96.7375 118.703,99.0709 118,101.5C 116.989,102.337 115.822,102.67 114.5,102.5C 114.158,101.662 113.492,101.328 112.5,101.5C 112.027,100.094 111.027,99.427 109.5,99.5C 107.597,96.5416 104.93,94.5416 101.5,93.5C 99.901,93.2322 98.5676,93.5655 97.5,94.5C 96.1266,94.3433 94.7932,94.51 93.5,95C 90.9518,97.4416 87.9518,99.1083 84.5,100C 82.1631,101.634 80.1631,103.467 78.5,105.5C 75.6424,105.595 73.3091,106.762 71.5,109C 69.0709,109.703 66.7375,109.537 64.5,108.5C 64.1667,107.833 63.8333,107.167 63.5,106.5C 62.1007,105.11 60.4341,104.11 58.5,103.5C 57.8333,103.5 57.1667,103.5 56.5,103.5C 56.0269,102.094 55.0269,101.427 53.5,101.5C 52.8262,99.9755 51.8262,98.6422 50.5,97.5C 47.3848,96.7763 44.7181,95.2763 42.5,93C 40.6131,92.2204 38.9464,92.3871 37.5,93.5C 35.7697,94.0256 34.4363,95.0256 33.5,96.5C 30.5035,97.2703 27.8368,98.6036 25.5,100.5C 24.8333,100.833 24.1667,101.167 23.5,101.5C 22.5041,101.586 21.6708,101.252 21,100.5C 20.5099,98.4546 20.6765,96.4546 21.5,94.5C 21.5,94.1667 21.5,93.8333 21.5,93.5C 23.0269,93.573 24.0269,92.9063 24.5,91.5C 24.8417,90.6618 25.5084,90.3284 26.5,90.5C 29.1979,90.1551 31.1979,88.8218 32.5,86.5C 33.4959,86.5858 34.3292,86.2524 35,85.5C 35.4998,75.172 35.6665,64.8387 35.5,54.5C 35.1658,51.812 35.8325,49.4786 37.5,47.5C 38.9587,47.5674 40.2921,47.2341 41.5,46.5C 46.2679,44.7969 50.2679,42.1302 53.5,38.5C 56.1979,38.1551 58.1979,36.8218 59.5,34.5C 61.9032,34.607 63.7365,33.607 65,31.5C 65.4995,25.5092 65.6662,19.5092 65.5,13.5C 67.3792,12.6586 69.3792,12.3253 71.5,12.5 Z M 66.5,41.5 C 68.1667,41.5 69.8333,41.5 71.5,41.5C 75.833,44.669 80.4997,47.3357 85.5,49.5C 85.9731,50.9063 86.9731,51.573 88.5,51.5C 82.3148,55.8509 75.8148,59.8509 69,63.5C 62.5816,60.0424 56.4149,56.209 50.5,52C 51.3805,51.2917 52.0472,50.4584 52.5,49.5C 54.674,49.2503 56.3406,48.2503 57.5,46.5C 58.4916,46.6716 59.1583,46.3382 59.5,45.5C 62.0041,44.4161 64.3374,43.0828 66.5,41.5 Z M 48.5,64.5 C 51.1612,67.5023 54.4945,69.5023 58.5,70.5C 59.8333,71.9335 61.3333,73.2668 63,74.5C 63.8218,82.0118 63.6552,89.3451 62.5,96.5C 59.7598,94.4405 56.7598,92.7738 53.5,91.5C 50.2041,89.1792 46.8708,86.8458 43.5,84.5C 43.3337,77.1591 43.5003,69.8258 44,62.5C 45.3297,63.5822 46.8297,64.2488 48.5,64.5 Z M 94.5,84.5 C 89.4771,87.8666 84.4771,91.2 79.5,94.5C 77.8828,95.038 76.2161,95.3713 74.5,95.5C 74.2218,88.621 74.5551,81.7877 75.5,75C 81.3776,70.4724 87.5443,66.3057 94,62.5C 94.4997,69.8258 94.6663,77.1591 94.5,84.5 Z"/></g>
<g><path style="opacity:0.592" fill="#487b63" d="M 71.5,41.5 C 73.5643,41.687 75.5643,42.187 77.5,43C 80.7685,45.4503 84.1018,47.617 87.5,49.5C 86.8333,49.5 86.1667,49.5 85.5,49.5C 80.4997,47.3357 75.833,44.669 71.5,41.5 Z"/></g>
<g><path style="opacity:0.129" fill="#2e6b70" d="M 64.5,41.5 C 65.1667,41.5 65.8333,41.5 66.5,41.5C 64.3374,43.0828 62.0041,44.4161 59.5,45.5C 60.5794,43.457 62.246,42.1237 64.5,41.5 Z"/></g>
<g><path style="opacity:0.769" fill="#5e8f55" d="M 71.5,41.5 C 69.8333,41.5 68.1667,41.5 66.5,41.5C 65.8333,41.5 65.1667,41.5 64.5,41.5C 65.7058,38.8609 67.7058,38.0276 70.5,39C 71.2524,39.6708 71.5858,40.5041 71.5,41.5 Z"/></g>
<g><path style="opacity:0.98" fill="#6b94b8" d="M 32.5,42.5 C 35.345,44.0231 38.345,45.0231 41.5,45.5C 41.5,45.8333 41.5,46.1667 41.5,46.5C 40.2921,47.2341 38.9587,47.5674 37.5,47.5C 34.7448,47.0367 33.0781,45.3701 32.5,42.5 Z"/></g>
<g><path style="opacity:0.271" fill="#3e7665" d="M 57.5,46.5 C 56.3406,48.2503 54.674,49.2503 52.5,49.5C 52.1667,49.5 51.8333,49.5 51.5,49.5C 52.911,47.461 54.911,46.461 57.5,46.5 Z"/></g>
<g><path style="opacity:0.18" fill="#226477" d="M 85.5,49.5 C 86.1667,49.5 86.8333,49.5 87.5,49.5C 87.8333,50.1667 88.1667,50.8333 88.5,51.5C 86.9731,51.573 85.9731,50.9063 85.5,49.5 Z"/></g>
<g><path style="opacity:0.702" fill="#609949" d="M 87.5,49.5 C 89.0269,49.427 90.0269,50.0937 90.5,51.5C 89.8333,51.5 89.1667,51.5 88.5,51.5C 88.1667,50.8333 87.8333,50.1667 87.5,49.5 Z"/></g>
<g><path style="opacity:0.169" fill="#4a7dad" d="M 113.5,50.5 C 109.854,52.8171 106.52,55.4838 103.5,58.5C 103.5,57.5 103.5,56.5 103.5,55.5C 105.983,52.2586 109.316,50.5919 113.5,50.5 Z"/></g>
<g><path style="opacity:0.598" fill="#75a1c5" d="M 19.5,51.5 C 18.8509,65.8733 19.5176,79.8733 21.5,93.5C 21.5,93.8333 21.5,94.1667 21.5,94.5C 20.8333,94.5 20.1667,94.5 19.5,94.5C 18.1667,80.1667 18.1667,65.8333 19.5,51.5 Z"/></g>
<g><path style="opacity:0.142" fill="#3b73a5" d="M 34.5,54.5 C 34.5,55.5 34.5,56.5 34.5,57.5C 30.9445,54.8012 27.1112,52.4679 23,50.5C 22.3333,51.1667 21.6667,51.8333 21,52.5C 20.1673,65.8458 20.334,79.1792 21.5,92.5C 22.4168,91.8728 23.4168,91.5394 24.5,91.5C 24.0269,92.9063 23.0269,93.573 21.5,93.5C 19.5176,79.8733 18.8509,65.8733 19.5,51.5C 21.7954,49.615 24.462,49.115 27.5,50C 30.1996,51.0113 32.5329,52.5113 34.5,54.5 Z"/></g>
<g><path style="opacity:0.398" fill="#477da9" d="M 113.5,50.5 C 115.489,49.1134 117.322,49.4468 119,51.5C 119.167,58.6667 119.333,65.8333 119.5,73C 119.497,80.5325 118.831,87.6992 117.5,94.5C 115.77,93.9744 114.436,92.9744 113.5,91.5C 115.117,92.038 116.784,92.3713 118.5,92.5C 118.667,80.1622 118.5,67.8288 118,55.5C 118.266,52.0992 116.766,50.4326 113.5,50.5 Z"/></g>
<g><path style="opacity:0.255" fill="#356da2" d="M 51.5,49.5 C 51.8333,49.5 52.1667,49.5 52.5,49.5C 52.0472,50.4584 51.3805,51.2917 50.5,52C 56.4149,56.209 62.5816,60.0424 69,63.5C 75.8148,59.8509 82.3148,55.8509 88.5,51.5C 89.1667,51.5 89.8333,51.5 90.5,51.5C 90.5,51.8333 90.5,52.1667 90.5,52.5C 83.577,56.8796 76.4104,60.8796 69,64.5C 61.8455,60.8366 54.6789,57.0033 47.5,53C 48.3805,52.2917 49.0472,51.4584 49.5,50.5C 50.1667,50.1667 50.8333,49.8333 51.5,49.5 Z"/></g>
<g><path style="opacity:0.197" fill="#30716e" d="M 34.5,54.5 C 34.8333,54.5 35.1667,54.5 35.5,54.5C 35.6665,64.8387 35.4998,75.172 35,85.5C 34.3292,86.2524 33.4959,86.5858 32.5,86.5C 32.7828,85.7109 33.2828,85.0442 34,84.5C 34.4998,75.5062 34.6664,66.5062 34.5,57.5C 34.5,56.5 34.5,55.5 34.5,54.5 Z"/></g>
<g><path style="opacity:0.348" fill="#3b7965" d="M 102.5,55.5 C 102.833,55.5 103.167,55.5 103.5,55.5C 103.5,56.5 103.5,57.5 103.5,58.5C 103.334,67.1731 103.5,75.8397 104,84.5C 107.501,86.4884 110.668,88.8217 113.5,91.5C 109.485,90.4089 105.985,88.4089 103,85.5C 102.5,75.5056 102.334,65.5056 102.5,55.5 Z"/></g>
<g><path style="opacity:0.178" fill="#26687d" d="M 42.5,60.5 C 44.8816,61.3507 46.8816,62.684 48.5,64.5C 46.8297,64.2488 45.3297,63.5822 44,62.5C 43.5003,69.8258 43.3337,77.1591 43.5,84.5C 42.5076,76.6841 42.1743,68.6841 42.5,60.5 Z"/></g>
<g><path style="opacity:0.192" fill="#4175aa" d="M 48.5,64.5 C 52.5654,65.2226 55.8987,67.2226 58.5,70.5C 54.4945,69.5023 51.1612,67.5023 48.5,64.5 Z"/></g>
<g><path style="opacity:1" fill="#c3d9ea" d="M 49.5,50.5 C 49.0472,51.4584 48.3805,52.2917 47.5,53C 54.6789,57.0033 61.8455,60.8366 69,64.5C 76.4104,60.8796 83.577,56.8796 90.5,52.5C 94.9914,53.2241 96.658,55.8907 95.5,60.5C 88.0467,63.6005 81.0467,67.6005 74.5,72.5C 73.1837,80.9616 73.1837,89.295 74.5,97.5C 70.5,101.5 66.5,101.5 62.5,97.5C 63.824,93.893 64.4907,89.893 64.5,85.5C 64.3333,81.5 64.1667,77.5 64,73.5C 62.5123,71.84 60.679,70.84 58.5,70.5C 55.8987,67.2226 52.5654,65.2226 48.5,64.5C 46.8816,62.684 44.8816,61.3507 42.5,60.5C 41.7018,54.966 44.0352,51.6327 49.5,50.5 Z"/></g>
<g><path style="opacity:0.277" fill="#3672a6" d="M 58.5,70.5 C 60.679,70.84 62.5123,71.84 64,73.5C 64.1667,77.5 64.3333,81.5 64.5,85.5C 64.4907,89.893 63.824,93.893 62.5,97.5C 62.5,97.1667 62.5,96.8333 62.5,96.5C 63.6552,89.3451 63.8218,82.0118 63,74.5C 61.3333,73.2668 59.8333,71.9335 58.5,70.5 Z"/></g>
<g><path style="opacity:0.225" fill="#38719a" d="M 95.5,60.5 C 95.8257,68.6841 95.4924,76.6841 94.5,84.5C 94.6663,77.1591 94.4997,69.8258 94,62.5C 87.5443,66.3057 81.3776,70.4724 75.5,75C 74.5551,81.7877 74.2218,88.621 74.5,95.5C 76.2161,95.3713 77.8828,95.038 79.5,94.5C 78.2318,96.047 76.5652,97.047 74.5,97.5C 73.1837,89.295 73.1837,80.9616 74.5,72.5C 81.0467,67.6005 88.0467,63.6005 95.5,60.5 Z"/></g>
<g><path style="opacity:0.337" fill="#27649b" d="M 137.5,71.5 C 137.5,75.5 137.5,79.5 137.5,83.5C 131.006,79.3974 131.006,75.3974 137.5,71.5 Z"/></g>
<g><path style="opacity:0.306" fill="#306d6e" d="M 32.5,86.5 C 31.1979,88.8218 29.1979,90.1551 26.5,90.5C 28.1475,88.6736 30.1475,87.3403 32.5,86.5 Z"/></g>
<g><path style="opacity:0.349" fill="#37716b" d="M 43.5,84.5 C 46.8708,86.8458 50.2041,89.1792 53.5,91.5C 50.7378,90.6205 48.0711,89.4538 45.5,88C 44.1772,87.1841 43.5106,86.0174 43.5,84.5 Z"/></g>
<g><path style="opacity:0.176" fill="#37716b" d="M 53.5,91.5 C 56.7598,92.7738 59.7598,94.4405 62.5,96.5C 62.5,96.8333 62.5,97.1667 62.5,97.5C 58.9505,96.2768 55.9505,94.2768 53.5,91.5 Z"/></g>
<g><path style="opacity:0.376" fill="#3e7766" d="M 94.5,84.5 C 90.882,89.7645 85.882,93.0979 79.5,94.5C 84.4771,91.2 89.4771,87.8666 94.5,84.5 Z"/></g>
<g><path style="opacity:0.082" fill="#216178" d="M 37.5,93.5 C 39.698,93.1201 41.3646,93.7868 42.5,95.5C 41.3052,95.3225 40.1385,94.9891 39,94.5C 37.1997,95.3195 35.3664,95.9862 33.5,96.5C 34.4363,95.0256 35.7697,94.0256 37.5,93.5 Z"/></g>
<g><path style="opacity:0.031" fill="#1a5b7c" d="M 97.5,94.5 C 98.5676,93.5655 99.901,93.2322 101.5,93.5C 101.833,94.1667 102.167,94.8333 102.5,95.5C 100.883,94.962 99.2161,94.6287 97.5,94.5 Z"/></g>
<g><path style="opacity:0.612" fill="#51875a" d="M 101.5,93.5 C 104.93,94.5416 107.597,96.5416 109.5,99.5C 106.996,98.4161 104.663,97.0828 102.5,95.5C 102.167,94.8333 101.833,94.1667 101.5,93.5 Z"/></g>
<g><path style="opacity:1" fill="#a3cb54" d="M 19.5,94.5 C 20.1667,94.5 20.8333,94.5 21.5,94.5C 20.6765,96.4546 20.5099,98.4546 21,100.5C 21.6708,101.252 22.5041,101.586 23.5,101.5C 23.5,101.833 23.5,102.167 23.5,102.5C 22.0413,102.567 20.7079,102.234 19.5,101.5C 18.3139,99.1256 18.3139,96.7922 19.5,94.5 Z"/></g>
<g><path style="opacity:1" fill="#74a841" d="M 37.5,93.5 C 38.9464,92.3871 40.6131,92.2204 42.5,93C 44.7181,95.2763 47.3848,96.7763 50.5,97.5C 51.8262,98.6422 52.8262,99.9755 53.5,101.5C 51.847,101.34 50.5137,100.674 49.5,99.5C 49.0269,98.0937 48.0269,97.427 46.5,97.5C 44.847,97.3404 43.5137,96.6737 42.5,95.5C 41.3646,93.7868 39.698,93.1201 37.5,93.5 Z"/></g>
<g><path style="opacity:0.322" fill="#417a64" d="M 97.5,94.5 C 91.3382,98.4159 85.0049,102.083 78.5,105.5C 80.1631,103.467 82.1631,101.634 84.5,100C 87.9518,99.1083 90.9518,97.4416 93.5,95C 94.7932,94.51 96.1266,94.3433 97.5,94.5 Z"/></g>
<g><path style="opacity:0.29" fill="#296674" d="M 46.5,97.5 C 48.0269,97.427 49.0269,98.0937 49.5,99.5C 47.9731,99.573 46.9731,98.9063 46.5,97.5 Z"/></g>
<g><path style="opacity:0.353" fill="#427964" d="M 33.5,96.5 C 31.7952,98.1921 29.7952,99.5254 27.5,100.5C 26.8333,100.5 26.1667,100.5 25.5,100.5C 27.8368,98.6036 30.5035,97.2703 33.5,96.5 Z"/></g>
<g><path style="opacity:0.176" fill="#266675" d="M 109.5,99.5 C 111.027,99.427 112.027,100.094 112.5,101.5C 110.973,101.573 109.973,100.906 109.5,99.5 Z"/></g>
<g><path style="opacity:0.153" fill="#41779f" d="M 25.5,100.5 C 26.1667,100.5 26.8333,100.5 27.5,100.5C 26.9094,101.151 26.2427,101.818 25.5,102.5C 28.0765,103.943 30.4099,105.61 32.5,107.5C 28.8876,106.757 25.8876,105.09 23.5,102.5C 23.5,102.167 23.5,101.833 23.5,101.5C 24.1667,101.167 24.8333,100.833 25.5,100.5 Z"/></g>
<g><path style="opacity:0.2" fill="#2e6c6f" d="M 53.5,101.5 C 55.0269,101.427 56.0269,102.094 56.5,103.5C 54.9731,103.573 53.9731,102.906 53.5,101.5 Z"/></g>
<g><path style="opacity:0.894" fill="#7097be" d="M 112.5,101.5 C 113.492,101.328 114.158,101.662 114.5,102.5C 114.5,102.833 114.5,103.167 114.5,103.5C 113.199,104.962 111.699,106.296 110,107.5C 106.686,108.282 103.52,109.282 100.5,110.5C 104.926,107.966 108.926,104.966 112.5,101.5 Z"/></g>
<g><path style="opacity:0.6" fill="#4e7fb0" d="M 14.5,109.5 C 18.5034,109.49 21.5034,111.157 23.5,114.5C 20.0078,113.59 17.0078,111.924 14.5,109.5 Z"/></g>
<g><path style="opacity:1" fill="#c3d8eb" d="M 12.5,36.5 C 12.3334,55.5029 12.5001,74.5029 13,93.5C 15.8167,95.7987 17.9833,98.4653 19.5,101.5C 20.7079,102.234 22.0413,102.567 23.5,102.5C 25.8876,105.09 28.8876,106.757 32.5,107.5C 33.2998,109.741 34.9664,110.741 37.5,110.5C 41.6512,113.803 45.9845,116.97 50.5,120C 63.4024,127.64 68.0691,123.806 64.5,108.5C 66.7375,109.537 69.0709,109.703 71.5,109C 73.3091,106.762 75.6424,105.595 78.5,105.5C 77.5637,106.974 76.2303,107.974 74.5,108.5C 70.9888,126.181 75.9888,129.181 89.5,117.5C 93.6829,115.913 97.3495,113.579 100.5,110.5C 103.52,109.282 106.686,108.282 110,107.5C 111.699,106.296 113.199,104.962 114.5,103.5C 115.239,103.369 115.906,103.536 116.5,104C 113.997,105.784 113.997,107.451 116.5,109C 118.759,108.561 121.092,108.061 123.5,107.5C 120.98,109.263 118.647,111.263 116.5,113.5C 113.386,113.555 111.052,114.888 109.5,117.5C 102.564,120.968 95.5641,124.468 88.5,128C 83.6505,132.198 78.3172,135.531 72.5,138C 71.4677,139.627 70.1344,140.793 68.5,141.5C 66.0672,141.727 64.4006,140.727 63.5,138.5C 56.8036,133.348 49.8036,128.514 42.5,124C 41.2068,123.51 39.8734,123.343 38.5,123.5C 34.5747,118.704 29.5747,115.704 23.5,114.5C 21.5034,111.157 18.5034,109.49 14.5,109.5C 13.5423,108.038 12.3756,106.705 11,105.5C 10.3333,82.8333 10.3333,60.1667 11,37.5C 11.3826,36.944 11.8826,36.6107 12.5,36.5 Z"/></g>
<g><path style="opacity:0.412" fill="#467bae" d="M 32.5,107.5 C 34.674,107.75 36.3406,108.75 37.5,110.5C 34.9664,110.741 33.2998,109.741 32.5,107.5 Z"/></g>
<g><path style="opacity:0.725" fill="#61974d" d="M 58.5,103.5 C 60.4341,104.11 62.1007,105.11 63.5,106.5C 62.8333,106.5 62.1667,106.5 61.5,106.5C 60.5084,106.672 59.8417,106.338 59.5,105.5C 59.1667,104.833 58.8333,104.167 58.5,103.5 Z"/></g>
<g><path style="opacity:0.2" fill="#2b6972" d="M 56.5,103.5 C 57.1667,103.5 57.8333,103.5 58.5,103.5C 58.8333,104.167 59.1667,104.833 59.5,105.5C 57.9731,105.573 56.9731,104.906 56.5,103.5 Z"/></g>
<g><path style="opacity:0.384" fill="#3973a8" d="M 100.5,110.5 C 97.3495,113.579 93.6829,115.913 89.5,117.5C 92.6505,114.421 96.3171,112.087 100.5,110.5 Z"/></g>
<g><path style="opacity:0.314" fill="#4e82b2" d="M 116.5,113.5 C 114.664,115.588 112.331,116.921 109.5,117.5C 111.052,114.888 113.386,113.555 116.5,113.5 Z"/></g>
<g><path style="opacity:0.678" fill="#5887b7" d="M 23.5,114.5 C 29.5747,115.704 34.5747,118.704 38.5,123.5C 32.9946,121.251 27.9946,118.251 23.5,114.5 Z"/></g>
<g><path style="opacity:0.329" fill="#4177aa" d="M 61.5,106.5 C 62.1667,106.5 62.8333,106.5 63.5,106.5C 63.8333,107.167 64.1667,107.833 64.5,108.5C 68.0691,123.806 63.4024,127.64 50.5,120C 45.9845,116.97 41.6512,113.803 37.5,110.5C 45.3889,114.377 53.0555,118.71 60.5,123.5C 61.4776,123.023 62.3109,122.357 63,121.5C 64.0452,116.215 63.5452,111.215 61.5,106.5 Z"/></g>
<g><path style="opacity:0.4" fill="#4379ad" d="M 74.5,108.5 C 74.3345,112.514 74.5012,116.514 75,120.5C 75.6122,123.032 77.1122,123.865 79.5,123C 82.7271,120.888 86.0604,119.055 89.5,117.5C 86.0604,119.055 82.7271,120.888 79.5,123C 77.1122,123.865 75.6122,123.032 75,120.5C 74.5012,116.514 74.3345,112.514 74.5,108.5 Z"/></g>
<g><path style="opacity:0.573" fill="#4a7bad" d="M 38.5,123.5 C 39.8734,123.343 41.2068,123.51 42.5,124C 49.8036,128.514 56.8036,133.348 63.5,138.5C 54.6614,134.251 46.3281,129.251 38.5,123.5 Z"/></g>
<g><path style="opacity:0.259" fill="#4a7bad" d="M 109.5,117.5 C 97.0681,125.892 84.4015,134.058 71.5,142C 70.2506,142.74 69.2506,142.573 68.5,141.5C 70.1344,140.793 71.4677,139.627 72.5,138C 78.3172,135.531 83.6505,132.198 88.5,128C 95.5641,124.468 102.564,120.968 109.5,117.5 Z"/></g>
</svg>
